<?xml version="1.0" encoding="UTF-8"?>
<!DOCTYPE svg PUBLIC "-//W3C//DTD SVG 1.1//EN" "http://www.w3.org/Graphics/SVG/1.1/DTD/svg11.dtd">
<!-- Creator: CorelDRAW -->
<svg xmlns="http://www.w3.org/2000/svg" xml:space="preserve" width="53.4376mm" height="60.0012mm" version="1.1" style="shape-rendering:geometricPrecision; text-rendering:geometricPrecision; image-rendering:optimizeQuality; fill-rule:evenodd; clip-rule:evenodd"
viewBox="0 0 413.63 464.44"
 xmlns:xlink="http://www.w3.org/1999/xlink"
 xmlns:xodm="http://www.corel.com/coreldraw/odm/2003">
 <defs>
  <style type="text/css">
   <![CDATA[
    .fil0 {fill:#FEFEFE}
   ]]>
  </style>
 </defs>
 <g id="Camada_x0020_1">
  <metadata id="CorelCorpID_0Corel-Layer"/>
  <path class="fil0" d="M122.46 115.2l251.26 0 0 309.32 -251.26 0 0 -309.32zm-39.91 -21.77l0 255.8 -42.63 0 0 -309.32 251.26 0 0 35.38 -190.49 0c-9.13,0 -18.14,8.85 -18.14,18.14zm-82.55 -75.29l0 352.86c0,9.33 8.45,18.14 19.96,18.14l62.59 0 0 57.15c0,9.39 8.75,18.14 18.14,18.14l294.8 0c9.39,0 18.14,-8.75 18.14,-18.14l0 -352.86c0,-9.33 -8.45,-18.14 -19.96,-18.14l-62.59 0 0 -57.15c0,-9.39 -8.75,-18.14 -18.14,-18.14l-294.8 0c-9.39,0 -18.14,8.75 -18.14,18.14z"/>
 </g>
</svg>
