<?xml version="1.0" encoding="UTF-8"?>
<!DOCTYPE svg PUBLIC "-//W3C//DTD SVG 1.1//EN" "http://www.w3.org/Graphics/SVG/1.1/DTD/svg11.dtd">
<!-- Creator: CorelDRAW -->
<svg xmlns="http://www.w3.org/2000/svg" xml:space="preserve" width="92.0552mm" height="19.4553mm" version="1.1" style="shape-rendering:geometricPrecision; text-rendering:geometricPrecision; image-rendering:optimizeQuality; fill-rule:evenodd; clip-rule:evenodd"
viewBox="0 0 9205.52 1945.53"
 xmlns:xlink="http://www.w3.org/1999/xlink"
 xmlns:xodm="http://www.corel.com/coreldraw/odm/2003">
 <defs>
  <style type="text/css">
   <![CDATA[
    .fil1 {fill:#FEFEFE;fill-rule:nonzero}
    .fil0 {fill:#03FFB8;fill-rule:nonzero}
   ]]>
  </style>
 </defs>
 <g id="Camada_x0020_1">
  <metadata id="CorelCorpID_0Corel-Layer"/>
  <g id="_2215703668304">
   <polygon class="fil0" points="-0,1513.93 -0,1389 653.71,1089.91 653.71,1233.77 148.91,1450.84 148.91,1453.36 653.71,1669.16 653.71,1814.29 "/>
   <path class="fil0" d="M1316.1 1867.73c80.23,0 137.06,-5.94 170.49,-17.83l62.4 -148.2c-54.98,17.09 -124.8,25.63 -209.49,25.63 -179.77,0 -269.66,-92.49 -269.66,-277.46 0,-80.97 23.4,-146.72 70.2,-197.23 48.29,-50.51 111.06,-75.77 188.32,-75.77 69.82,0 142.25,15.97 217.28,47.91l-1.11 -152.65c-36.4,-11.89 -72.43,-20.62 -108.09,-26.19 -35.66,-5.57 -70.94,-8.36 -105.86,-8.36 -134.45,0 -240.68,40.12 -318.68,120.35 -74.29,76.51 -111.43,177.91 -111.43,304.2 0,110.68 33.06,203.54 99.17,278.57 76.52,84.69 182,127.03 316.46,127.03zm450.17 -414.52c0,-89.14 23.4,-159.71 70.2,-211.71 43.09,-47.55 94.72,-71.32 154.89,-71.32 58.68,0 109.94,23.77 153.77,71.32 47.54,52 71.31,122.2 71.31,210.6 0,86.91 -23.77,157.11 -71.31,210.6 -43.09,47.54 -94.34,71.31 -153.77,71.31 -59.43,0 -110.32,-23.77 -152.66,-71.31 -23.77,-26 -41.79,-56.46 -54.04,-91.37 -12.26,-34.92 -18.39,-74.29 -18.39,-118.12zm223.97 -420.08c-104.74,0 -193.14,34.91 -265.2,104.74 -80.23,78 -120.34,182.37 -120.34,313.11 0,132.23 40.11,236.61 120.34,313.12 73.55,71.31 161.95,106.97 265.2,106.97 104,0 193.15,-35.28 267.43,-105.86 80.23,-78 120.35,-182.37 120.35,-313.11 0,-130 -40.12,-234.37 -120.35,-313.12 -72.8,-70.57 -161.94,-105.85 -267.43,-105.85zm450.17 11.14c12.63,6.68 23.03,23.4 31.2,50.14 3.72,10.4 6.5,21.54 8.36,33.43 1.86,11.89 2.78,23.03 2.78,33.43l0 582.77c0,11.15 -0.92,22.29 -2.78,33.43 -1.86,11.14 -4.64,21.92 -8.36,32.32 -3.71,11.88 -8.36,21.91 -13.93,30.08 -5.57,8.17 -11.33,14.12 -17.27,17.83l245.15 0c135.2,0 242.54,-35.29 322.03,-105.86 83.2,-73.54 124.8,-178.28 124.8,-314.23 0,-262.23 -148.2,-393.34 -444.61,-393.34l-247.37 0zm198.35 131.48l63.51 0c82.46,0 146.71,23.78 192.77,71.32 46.06,47.54 69.09,114.77 69.09,201.69 0,93.6 -24.89,163.42 -74.66,209.48 -45.31,43.83 -108.09,65.75 -188.31,65.75l-62.4 0 0 -548.24zm755.48 -131.48l-199.46 0c13.37,6.68 24.14,23.03 32.32,49.03 3.71,10.4 6.5,21.54 8.35,33.43 1.86,11.88 2.79,23.02 2.79,33.42l0 697.55 156 0 0 -813.43zm294.18 813.43l0 -354.34 234 0 0 -130.38 -234 0 0 -196.11 265.2 0 0 -132.6 -463.55 0c12.63,7.43 23.03,23.77 31.2,49.03 3.72,10.4 6.5,21.35 8.36,32.87 1.86,11.51 2.78,22.84 2.78,33.98l0 580.55c0,11.89 -1.3,23.96 -3.9,36.21 -2.6,12.26 -5.75,24.33 -9.47,36.22 -3.71,10.4 -8.17,19.5 -13.37,27.3 -5.2,7.8 -10.03,13.56 -14.48,17.27l197.23 0zm521.48 -813.43l-199.46 0c13.37,6.68 24.14,23.03 32.32,49.03 3.71,10.4 6.5,21.54 8.35,33.43 1.86,11.88 2.79,23.02 2.79,33.42l0 697.55 156 0 0 -813.43zm515.92 823.46c80.23,0 137.06,-5.94 170.49,-17.83l62.4 -148.2c-54.98,17.09 -124.8,25.63 -209.49,25.63 -179.77,0 -269.66,-92.49 -269.66,-277.46 0,-80.97 23.4,-146.72 70.2,-197.23 48.29,-50.51 111.06,-75.77 188.32,-75.77 69.82,0 142.25,15.97 217.28,47.91l-1.11 -152.65c-36.4,-11.89 -72.43,-20.62 -108.09,-26.19 -35.66,-5.57 -70.94,-8.36 -105.86,-8.36 -134.45,0 -240.68,40.12 -318.68,120.35 -74.29,76.51 -111.43,177.91 -111.43,304.2 0,110.68 33.06,203.54 99.17,278.57 76.52,84.69 182,127.03 316.46,127.03zm602.83 -504.77c8.17,-24.52 15.23,-47.92 21.17,-70.21 5.94,-22.28 10.77,-43.82 14.49,-64.62l1.11 0c3.71,21.54 8.54,43.64 14.49,66.3 5.94,22.65 12.62,44.75 20.05,66.3l70.2 208.37 -209.48 0 67.97 -206.14zm416.74 494.74c-10.4,-7.43 -20.8,-20.43 -31.2,-39 -10.4,-18.57 -20.8,-43.46 -31.2,-74.66l-237.34 -699.77 -159.34 0 -237.35 699.77c-20.8,63.15 -41.6,101.03 -62.4,113.66l184.97 0 52.38 -164.91 284.14 0 53.49 164.91 183.85 0zm232.89 -291.94c0,-67.6 -0.75,-126.85 -2.23,-177.73 -1.49,-50.89 -2.97,-94.16 -4.46,-129.82 15.6,37.14 30.09,70.39 43.46,99.73 13.37,29.34 25.63,54.42 36.77,75.22l226.2 424.54 203.91 0 0 -813.43 -156 0 0 251.83c0,77.26 0.75,144.3 2.23,201.13 1.49,56.83 3.72,103.07 6.69,138.73 -14.86,-31.95 -30.46,-63.7 -46.8,-95.28 -16.35,-31.57 -32.69,-63.32 -49.03,-95.27l-213.94 -401.14 -245.15 0c12.63,6.68 23.03,23.03 31.2,49.03 3.72,10.4 6.5,21.54 8.36,33.43 1.86,11.88 2.78,23.02 2.78,33.42l0 581.66c0,11.15 -0.92,22.48 -2.78,33.99 -1.86,11.51 -4.64,22.47 -8.36,32.87 -3.71,11.89 -8.36,22.1 -13.93,30.64 -5.57,8.55 -11.33,14.68 -17.27,18.39l198.35 0 0 -291.94zm599.48 -521.49c12.63,6.68 23.03,23.4 31.2,50.14 3.72,10.4 6.5,21.54 8.36,33.43 1.86,11.89 2.78,23.03 2.78,33.43l0 582.77c0,11.15 -0.92,22.29 -2.78,33.43 -1.86,11.14 -4.64,21.92 -8.36,32.32 -3.71,11.88 -8.36,21.91 -13.93,30.08 -5.57,8.17 -11.33,14.12 -17.27,17.83l245.15 0c135.2,0 242.54,-35.29 322.03,-105.86 83.2,-73.54 124.8,-178.28 124.8,-314.23 0,-262.23 -148.2,-393.34 -444.61,-393.34l-247.37 0zm198.35 131.48l63.51 0c82.46,0 146.71,23.78 192.77,71.32 46.06,47.54 69.09,114.77 69.09,201.69 0,93.6 -24.89,163.42 -74.66,209.48 -45.31,43.83 -108.09,65.75 -188.31,65.75l-62.4 0 0 -548.24zm722.05 277.46c0,-89.14 23.4,-159.71 70.2,-211.71 43.09,-47.55 94.72,-71.32 154.89,-71.32 58.68,0 109.94,23.77 153.77,71.32 47.54,52 71.31,122.2 71.31,210.6 0,86.91 -23.77,157.11 -71.31,210.6 -43.09,47.54 -94.34,71.31 -153.77,71.31 -59.43,0 -110.32,-23.77 -152.66,-71.31 -23.77,-26 -41.79,-56.46 -54.04,-91.37 -12.26,-34.92 -18.39,-74.29 -18.39,-118.12zm223.97 -420.08c-104.74,0 -193.14,34.91 -265.2,104.74 -80.23,78 -120.34,182.37 -120.34,313.11 0,132.23 40.11,236.61 120.34,313.12 73.55,71.31 161.95,106.97 265.2,106.97 104,0 193.15,-35.28 267.43,-105.86 80.23,-78 120.35,-182.37 120.35,-313.11 0,-130 -40.12,-234.37 -120.35,-313.12 -72.8,-70.57 -161.94,-105.85 -267.43,-105.85z"/>
   <path class="fil0" d="M8247.68 1945.53l291.51 -986.87 -137.55 0 -291.52 986.87 137.56 0zm957.84 -431.6l0 -124.93 -653.71 -299.09 0 143.86 504.79 217.07 0 2.52 -504.79 215.8 0 145.13 653.71 -300.36z"/>
  </g>
  <path class="fil1" d="M2401.48 11.14c13.37,6.68 24.14,23.03 32.32,49.03 3.71,10.4 6.5,21.35 8.35,32.87 1.86,11.51 2.79,22.84 2.79,33.98l0 580.55c0,23.77 -4.83,47.54 -14.49,71.31 -3.71,10.4 -8.17,19.69 -13.37,27.86 -5.2,8.17 -10.03,14.12 -14.48,17.83l198.34 0 0 -280.8 31.2 0c99.54,0 177.91,-27.49 235.11,-82.46 54.23,-51.26 81.35,-117.74 81.35,-199.46 0,-79.48 -27.12,-141.14 -81.35,-184.97 -52.74,-43.83 -128.88,-65.74 -228.42,-65.74l-237.35 0zm199.46 128.14l33.43 0c101.77,0 152.66,44.2 152.66,132.6 0,43.09 -15.23,77.63 -45.69,103.63 -29.71,25.26 -68.71,37.89 -117,37.89l-23.4 0 0 -274.12zm845.75 373.29c-14.86,-26.74 -28.6,-43.09 -41.23,-49.03 42.34,-13.37 77.63,-39.74 105.86,-79.11 28.97,-40.12 43.46,-88.78 43.46,-145.98 0,-151.54 -97.69,-227.31 -293.06,-227.31l-256.29 0c13.37,6.68 24.14,23.03 32.32,49.03 3.71,10.4 6.5,21.35 8.35,32.87 1.86,11.51 2.79,22.47 2.79,32.87l0 580.55c0,11.88 -1.3,23.95 -3.9,36.21 -2.6,12.26 -5.76,23.96 -9.47,35.1 -8.17,23.03 -17.83,38.63 -28.97,46.8l198.34 0 0 -333.17 21.17 0c22.29,0 39.74,13.37 52.37,40.11l138.17 293.06 192.78 0 -162.69 -312zm-241.8 -375.52l41.23 0c97.31,0 145.97,39 145.97,117 0,38.63 -13.74,68.72 -41.23,90.26 -26.74,22.29 -63.14,33.43 -109.2,33.43l-36.77 0 0 -240.69zm599.49 283.03c0,-89.14 23.4,-159.71 70.2,-211.71 43.09,-47.55 94.72,-71.32 154.89,-71.32 58.68,0 109.94,23.77 153.77,71.32 47.54,52 71.31,122.2 71.31,210.6 0,86.91 -23.77,157.11 -71.31,210.6 -43.09,47.54 -94.34,71.31 -153.77,71.31 -59.43,0 -110.32,-23.77 -152.66,-71.31 -23.77,-26 -41.79,-56.46 -54.04,-91.37 -12.26,-34.92 -18.39,-74.29 -18.39,-118.12zm223.97 -420.08c-104.74,0 -193.14,34.91 -265.2,104.74 -80.23,78 -120.34,182.37 -120.34,313.11 0,132.23 40.11,236.61 120.34,313.12 73.55,71.31 161.95,106.97 265.2,106.97 104,0 193.15,-35.28 267.43,-105.86 80.23,-78 120.35,-182.37 120.35,-313.11 0,-130 -40.12,-234.37 -120.35,-313.12 -72.8,-70.57 -161.94,-105.85 -267.43,-105.85zm602.83 589.45c0,42.35 -7.43,71.69 -22.29,88.03 -14.11,15.6 -37.51,23.4 -70.2,23.4 -17.08,0 -33.24,-0.92 -48.47,-2.78 -15.23,-1.86 -28.78,-4.64 -40.67,-8.36l55.71 134.83c23.78,5.94 46.06,8.91 66.86,8.91 144.12,0 216.17,-79.48 216.17,-238.45l0 -583.89 -200.57 0c13.37,6.68 24.14,23.03 32.32,49.03 3.71,10.4 6.5,21.54 8.35,33.43 1.86,11.88 2.79,23.02 2.79,33.42l0 462.43zm674.14 235.12l55.72 -132.6 -283.03 0 0 -221.74 232.89 0 0 -130.38 -232.89 0 0 -196.11 264.09 0 0 -132.6 -463.55 0c13.37,6.68 24.14,23.03 32.32,49.03 3.71,10.4 6.5,21.35 8.35,32.87 1.86,11.51 2.79,22.84 2.79,33.98l0 580.55c0,23.03 -4.83,47.17 -14.49,72.43 -3.71,10.4 -8.17,19.5 -13.37,27.3 -5.2,7.8 -10.03,13.56 -14.48,17.27l425.65 0zm449.06 -680.83l178.29 0 53.48 -132.6 -588.34 0 0 132.6 203.91 0 0 680.83 152.66 0 0 -680.83zm437.91 276.34c0,-89.14 23.4,-159.71 70.2,-211.71 43.09,-47.55 94.72,-71.32 154.89,-71.32 58.68,0 109.94,23.77 153.77,71.32 47.54,52 71.31,122.2 71.31,210.6 0,86.91 -23.77,157.11 -71.31,210.6 -43.09,47.54 -94.34,71.31 -153.77,71.31 -59.43,0 -110.32,-23.77 -152.66,-71.31 -23.77,-26 -41.79,-56.46 -54.04,-91.37 -12.26,-34.92 -18.39,-74.29 -18.39,-118.12zm223.97 -420.08c-104.74,0 -193.14,34.91 -265.2,104.74 -80.23,78 -120.34,182.37 -120.34,313.11 0,132.23 40.11,236.61 120.34,313.12 73.55,71.31 161.95,106.97 265.2,106.97 104,0 193.15,-35.28 267.43,-105.86 80.23,-78 120.35,-182.37 120.35,-313.11 0,-130 -40.12,-234.37 -120.35,-313.12 -72.8,-70.57 -161.94,-105.85 -267.43,-105.85z"/>
 </g>
</svg>
